/* XPM */
static char *_2020e83ee1f4537b83a1d68f758db8eaf48jJlLSpSAIRDp[] = {
/* columns rows colors chars-per-pixel */
"32 32 27 1 ",
"  c None",
". c black",
"X c black",
"o c #C03838",
"O c #F86848",
"+ c #682828",
"@ c #784040",
"# c #D89070",
"$ c #383878",
"% c #B89838",
"& c #E8E8F8",
"* c #F8C090",
"= c #F8D858",
"- c #B0B0D0",
"; c #70A0C0",
": c #A87840",
"> c #000001",
", c #682829",
"< c #010000",
"1 c #C03838",
"2 c #000100",
"3 c #692828",
"4 c #784140",
"5 c #F86948",
"6 c #C13838",
"7 c #794040",
"8 c #F86849",
/* pixels */
"                                ",
"                                ",
"                                ",
"                                ",
"                                ",
"        33777777777777733       ",
"       +7o6OOOOOOOOOOO6o7+      ",
"       +oOOOOOOOOOOOOOOOo+      ",
"     +7o6OOOOOOOOOOOOOOO6o7+    ",
"     +7o66OOOOOOOOOOOOO66o7+    ",
"     +3ooo6OOOOOOOOOOO6ooo3+    ",
"     .3ooooooooooooooooooo3.    ",
"     <+,7ooooooooooooooo7,+<    ",
"   .4::@@+7ooo3...3ooo7+@@::4.  ",
"   .4#:<,@@3333+++3333@@,<:#4.  ",
"    444.+@@@4:4@@@4:4@@@+.444   ",
"      ..+,,,4:4@@@4:4,,,+..     ",
"      >$,++44,,,,,,,44++<..     ",
"     44$@7:%:+++++++:%:7,>,4    ",
"   @#*#$7o:%:ooooooo:%:o7$#*#@  ",
"   @:#:@7oo4%=======%4oo7@:#:@  ",
"    7:4+++4%%=======%%4+++4:7   ",
"      @$$;:%%%%%%%%%%%:;$$@     ",
"       $$;;##%%:::%%##;;$$      ",
"       .>>$;;::@@@::;;$>>.      ",
"       .$$$$$.......$$$$$.      ",
"         ....       ....        ",
"                                ",
"                                ",
"                                ",
"                                ",
"                                "
};
