/* XPM */
static char *_44600e333834e1fa75b06592ab567b1hSw3ehmHSnBnlZZW[] = {
/* columns rows colors chars-per-pixel */
"32 32 123 2 ",
"   c None",
".  c #4E3C0D",
"X  c #4D3C12",
"o  c #513E16",
"O  c #58430B",
"+  c #544213",
"@  c #56451A",
"#  c #665215",
"$  c #6A5615",
"%  c #6E5919",
"&  c #7C6513",
"*  c #74601B",
"=  c #7E691F",
"-  c #705C25",
";  c #766227",
":  c #7B6723",
">  c #75622D",
",  c #7E682D",
"<  c #7D6835",
"1  c #7B683D",
"2  c #7E6645",
"3  c #7E6A44",
"4  c #7C6B4C",
"5  c #826C1D",
"6  c #8A731B",
"7  c #9A7F16",
"8  c #957D1C",
"9  c #997F1A",
"0  c #856F24",
"q  c #8E7624",
"w  c #957C2D",
"e  c #826D3F",
"r  c #8A7439",
"t  c #947D36",
"y  c #937C3D",
"u  c #816A46",
"i  c #856D4B",
"p  c #886F4C",
"a  c #85704D",
"s  c #8A714E",
"d  c #947D41",
"f  c #857151",
"g  c #8C7452",
"h  c #8D7856",
"j  c #82745B",
"k  c #907756",
"l  c #917957",
"z  c #947C5B",
"x  c #9D831F",
"c  c #AA8B16",
"v  c #A2871D",
"b  c #A4891D",
"n  c #AB8E1B",
"m  c #AE901D",
"M  c #B59517",
"N  c #B2941D",
"B  c #B7981D",
"V  c #BB9A1C",
"C  c #9C8323",
"Z  c #9A812C",
"A  c #9B8335",
"S  c #A18724",
"D  c #A68B23",
"F  c #AA8F24",
"G  c #A0842C",
"H  c #AD9122",
"J  c #AF942A",
"K  c #B29523",
"L  c #B79925",
"P  c #BC9D22",
"I  c #B99C2D",
"U  c #A38A37",
"Y  c #AA903D",
"T  c #B59B3C",
"R  c #BFA026",
"E  c #C5A21B",
"W  c #CAA71F",
"Q  c #DAB51F",
"!  c #C4A423",
"~  c #C8A722",
"^  c #CCAA23",
"/  c #C3A42A",
"(  c #C8A728",
")  c #C7A82D",
"_  c #CBAB2B",
"`  c #D5B123",
"'  c #DAB524",
"]  c #DEB822",
"[  c #D5B229",
"{  c #CCAD30",
"}  c #E1BB23",
"|  c #EAC222",
" . c #98805F",
".. c #A28D47",
"X. c #B39A48",
"o. c #BA9F4D",
"O. c #A69152",
"+. c #A5925D",
"@. c #948563",
"#. c #988C71",
"$. c #A4936A",
"%. c #A59571",
"&. c #A79976",
"*. c #B8A167",
"=. c #CDAE4C",
"-. c #C3A855",
";. c #968E84",
":. c #A69A83",
">. c #AA9C80",
",. c #A0A09F",
"<. c #ABA399",
"1. c #B0A491",
"2. c #B1A695",
"3. c #B3AA9F",
"4. c #BCB09D",
"5. c #B5ADA3",
"6. c #BBB1A0",
"7. c #BFB5A5",
"8. c #C0B5A3",
"9. c #C1BAB1",
"0. c #C5BFB6",
"q. c #D8D0C5",
"w. c #D9D1C6",
/* pixels */
"                                                                ",
"                                                                ",
"                                                                ",
"                                                                ",
"                                                                ",
"                        z z z l z k z z                         ",
"                     .h p g f i a i g p s z                     ",
"                  h p g 3 > 5 7 6 8 : 1 i p g                   ",
"                l s a , 9 8 8 n C n x C q p s g                 ",
"              z p g ; b v 8 C %.A m C F M 9 i p h               ",
"              s p < x n x 9 ..Y O.N S H D K q a 2               ",
"              p i 9 m N v q #.G w $.Z K D F n u i h             ",
"              i 2 n B B b 1.0.5.3.9.>.L F D V r u g             ",
"              i 3 N V V b 4.q.;.<.q.:.K F D P t p p             ",
"              p 4 o.E ! v %.2.7.8.6.@.K H F P t p i             ",
"              p f *.E / b b b m B H J P H F L y s p             ",
"              i i n c / n 8 $ v E K S P K x = e s               ",
"              s h o O : 9 . X + N * + % 8 + @ 4 s               ",
"              p h - V 0 X & H 6 # # V 8 o 5 K 3 s               ",
"              p g t W / K m N L m ! ! ! X.&.T a s               ",
"              u s y ^ ) P N N P ! Q ! ` %.,.+.f p               ",
"              2 s j =.( / P B P ! Q R ] I U F s p               ",
"                p j -.! ) P B P ~ ] ! } ( P S h p               ",
"                i a / ^ { P V P ^ ] ~ | _ ! C g g               ",
"                p g ! ` _ P V ! ` ] ! | ' ! A s i               ",
"                p a ! ] ! ! V ! ' } ! | [ ! t s 2               ",
"                p h ! | ~ ~ E ^ } ] ~ | [ ~ d i 2               ",
"                                                                ",
"                                                                ",
"                                                                ",
"                                                                ",
"                                                                "
};
