/* XPM */
static char *dfbe88c915d448f2cdca6b77627eddf4dVVwmXwdBIAEADs9[] = {
/* columns rows colors chars-per-pixel */
"32 32 27 1 ",
"  c None",
". c black",
"X c black",
"o c #C03838",
"O c #F86848",
"+ c #682828",
"@ c #784040",
"# c #D89070",
"$ c #383878",
"% c #B89838",
"& c #E8E8F8",
"* c #F8C090",
"= c #F8D858",
"- c #B0B0D0",
"; c #70A0C0",
": c #A87840",
"> c #000001",
", c #682829",
"< c #010000",
"1 c #C03838",
"2 c #000100",
"3 c #692828",
"4 c #784140",
"5 c #F86948",
"6 c #C13838",
"7 c #794040",
"8 c #F86849",
/* pixels */
"         +++++++++++++++        ",
"        77ooooooooooooo77       ",
"       +7o6OOOOOOOOOOO6o7+      ",
"       +oOOOOOOOOOOOOOOOo+      ",
"      376OOOOOOOOOOOOOOO673     ",
"     +7o6OOOOOOOOOOOOOOO6o7+    ",
"     <3o66OOOOOOOOOOOOO66o3<    ",
"     .3ooo6OOO#***#OOO6ooo3.    ",
"     .3ooooooo-&&&-ooooooo3.    ",
"   .+:43:-#o#--###--#o#-:34:+.  ",
"   .4::+4--#---###---#--4+::4.  ",
"   .4#:.$$-&&&&&&&&&&&-$$.:#4.  ",
"    ,44@:##;;;;;;;;;;;##:@44,   ",
"     .,::##:4$$:::$$4:##::,.    ",
"     .4####*#.#***#.#*####4.    ",
"      4::###:,#***#,:###::4     ",
"      @@:###:7#***#7:###:@@     ",
"     .$$$.,@:#######:@,.$$$.    ",
"   @:##$$$7o744444447o7$$$##:@  ",
"   @:*#$$$7oo+,$$$,+oo7$$$#*:@  ",
"   @:####$7ooo#---#ooo7$####:@  ",
"    ::::4$7o6O*&&&*O6o7$4::::   ",
"     @,>>>7o6O*&&&*O6o7>>>,@    ",
"       $;;;$$.......$$;;;$      ",
"       $$$;;;;$...$;;;;$$$      ",
"       .>>$;;;$...$;;;$>>.      ",
"       .$$$$$..   ..$$$$$.      ",
"       .$$$$$.     .$$$$$.      ",
"         ....       ....        ",
"                                ",
"                                ",
"                                "
};
