/* XPM */
static char *bb7be74a26ae4c56d7f6054dfabd1ff35OHIz2IzXZFIRb25[] = {
/* columns rows colors chars-per-pixel */
"32 32 98 2 ",
"   c #111212",
".  c #1C1D1D",
"X  c #1F2020",
"o  c #242424",
"O  c #262825",
"+  c #2B2D2D",
"@  c #323433",
"#  c #363838",
"$  c #3A3C3C",
"%  c #3E403F",
"&  c #3E4141",
"*  c #444645",
"=  c #474A49",
"-  c #4A4D4D",
";  c #4E544A",
":  c #4D5150",
">  c #535555",
",  c #565959",
"<  c #5B5D5D",
"1  c #5D605F",
"2  c #64714D",
"3  c #6B755C",
"4  c #5E6161",
"5  c #626665",
"6  c #686967",
"7  c #666A69",
"8  c #696B6B",
"9  c #6D706F",
"0  c #727B65",
"q  c #737B6B",
"w  c #6E7271",
"e  c #737474",
"r  c #757A79",
"t  c #797A7A",
"y  c #82867D",
"u  c #7F8382",
"i  c #818585",
"p  c #838887",
"a  c #8A8F8F",
"s  c #8D9190",
"d  c #919595",
"f  c #969897",
"g  c #959B9B",
"h  c #9A9D9D",
"j  c #9DA3A2",
"k  c #A2A4A4",
"l  c #A2A8A7",
"z  c #A5AAAA",
"x  c #ABADAD",
"c  c #AAB0AF",
"v  c #AEB3B2",
"b  c #B2B4B4",
"n  c #B2B8B7",
"m  c #B5BBBA",
"M  c #BABEBE",
"N  c #BAC0BF",
"B  c #BFC8BA",
"V  c #BDC3C2",
"C  c #C2C6C5",
"Z  c #C2C9C6",
"A  c #C5CBCA",
"S  c #C9CECD",
"D  c #C6D0C3",
"F  c #C9D1C5",
"G  c #CBD1CE",
"H  c #CDD2D1",
"J  c #D1D5D5",
"K  c #D3DAD4",
"L  c #D5DADA",
"P  c #D9DBDB",
"I  c #D9DDDD",
"U  c #DADFDF",
"Y  c #DAE0DF",
"T  c #DEE0DF",
"R  c #DBE0E0",
"E  c #DCE0E0",
"W  c #DFE4E3",
"Q  c #E2E3E3",
"!  c #E1E4E3",
"~  c #E0E5E5",
"^  c #E3E8E7",
"/  c #E4E8E7",
"(  c #E5E8E7",
")  c #E3E9E8",
"_  c #E6EAEA",
"`  c #E7ECEB",
"'  c #E7ECEC",
"]  c #E9EBEB",
"[  c #EAECEB",
"{  c #EBEDED",
"}  c #EDEEEE",
"|  c #ECF0EF",
" . c #EEF1F1",
".. c #F1F2F2",
"X. c #F3F5F5",
"o. c #F5F6F6",
"O. c #F7F8F8",
"+. c #F9FAFA",
/* pixels */
"= , > - & : - , + = < < - > : , $ + @ + o o o ,   o + + + + # @ ",
"e b b b b b b b x b b b n b n b e x n x x x x k k x b z x v b h ",
"y L { X. . .] ] ~ T [ o.X.o.X.O.e Q / J J P J S H ~ _ U L T _ J ",
"q n J _ U ~ L L H m J {  . .! X., H S m M S V A H _ ) H v V H H ",
"q C U _ E ~ U U V M L  ._ ~ U ..4 A m m V A H U E E Y H v m S H ",
"0 A E ~ E ) E L V C L [ ~ U J  .< N v C A S J ~ { U H S v n Z H ",
"0 Z E E U ~ E L A S J _ _ J M } < V n H A H A W ` Y Z Z n V Z J ",
"3 V L L H Y R J J Y E { _ S x } , m M C A L H J U H V H S S A J ",
"2 m A G A H J H U ' _ { ] S v _ - x V M G U H S V V V L E U G J ",
"2 c C C A Z A S L ) ^ / _ Z x Q $ d A V J L J V v m V U ' ) L J ",
"2 m S m V m C S J U U ~ ~ J A / $ d S G H H A M v n A W ' E H J ",
"2 V U V m x V H J S H ~ U J Q  .* z A H Z H A n m V H ) W S M H ",
"3 M ~ J m x V U H V J U L P } o., V G A V L S m N V U W L M v S ",
"3 m { U V n A U L J U J H T { O.1 H S S m U H v n Z J Y L m z Z ",
"3 a H V z g z V V V C x j M Z ] , m m m j Z n d j n m Z m g r v ",
"; + * = $ # $ & * * * $ # * $ g * 5 7 5 < 8 4 > 5 7 5 9 5 : @ w ",
"6 e e e e e e e > e e e e e e e t e e e e t e 9 , e e e e 8 5 6 ",
"G ] o.O.o.X.X.+.f O.O.O.X...X.O...! U P ~ } ] Q d U ~ ] _ P C Z ",
"z C E E Y L U ..8 L Q / P L L U L m V V L E H L , m J ~ W M h z ",
"Z C H L L S H  .6 H P U H T U H S l m A U E H J - M U _ ~ M v V ",
"K J S J A n S  .8 H J H H U ~ L H v v S E ~ L J - V ~ { J m A J ",
"P L C C C m J ..8 S C M S J E E S v v S U _ E P , H ~ _ S C C L ",
"K E m m S A J X.8 m v M S H L L Z N v A U _ E U 7 U ~ _ V A m H ",
"K U M V U H J } 8 n x v S L A V V A C S R _ U U 8 U ~ U V N v A ",
"F J V C E U A } 8 V x V L J C C H J S H ~ ~ J J 4 S ~ U H V z Z ",
"Z H H H ~ J A o.8 A C S U J H A H L J H U L H J = M ~ E J C k m ",
"B U U U ] J H O.8 A S L E U L S A L J G H A S J $ z R { H V x m ",
"F _ ~ _ / J E O.8 C C U Q E ~ H V L J S A m S S $ h L _ S m m C ",
"K  .| { ~ L L o.8 M S U U _ ] L G L S V A m S S & j J P A A Z A ",
"D _ ` U H A C ] 6 j H H A U _ L S S v l m m Z S $ z S A M A v V ",
"q w e 8 , < > s , - 5 7 4 8 r 9 i p e 7 7 r r s @ r s i r u e u ",
"O X O O . o o o . . o X o o + O @ $ # @ + @ @ @ . @ * % # $ $ $ "
};
