/* XPM */
static char *_d2f263297a149b7d3e141ad73afef2aAb2vByVCqQPviCrQ[] = {
/* columns rows colors chars-per-pixel */
"32 32 27 1 ",
"  c None",
". c black",
"X c black",
"o c #C03838",
"O c #F86848",
"+ c #682828",
"@ c #784040",
"# c #D89070",
"$ c #383878",
"% c #B89838",
"& c #E8E8F8",
"* c #F8C090",
"= c #F8D858",
"- c #B0B0D0",
"; c #70A0C0",
": c #A87840",
"> c #000001",
", c #682829",
"< c #010000",
"1 c #C03838",
"2 c #000100",
"3 c #692828",
"4 c #784140",
"5 c #F86948",
"6 c #C13838",
"7 c #794040",
"8 c #F86849",
/* pixels */
"                                ",
"                                ",
"                                ",
"                                ",
"                                ",
"         +++++++++++++++        ",
"       +7o6OOOOOOOOOOO6o7+      ",
"      37o6OOOOOOOOOOOOO6o+      ",
"     +7o6OOOOOOOOOOOOOOOo+      ",
"   +++-&*OOOOOOOOOOOOOOO6o7+    ",
"  ;-#+-&-OOOOOOOOOOOOOOO6o7+    ",
" .;&-+-&-o6OOOOOOOOOOO6ooo7+    ",
" .;&-o#--ooooooooooooooooo7+    ",
" .;&&-###oooooooooooooooo73+    ",
" .;&---:::oooooooooooooo7,+.    ",
"   .;------ooooooooo7+++@@+.    ",
"    4:;;;447777777777@@@@@+.    ",
"     @44477+@77774::::7@@,+.    ",
"     @:###:.:####:#*##:@+.      ",
"       7#*#@#*####**##:<<       ",
"       @:##:#*#######::4+       ",
"         @:#######:@@@:%4<      ",
"         +,@@@,<<<++:%====%.    ",
"         +7o7+,$$$,+:%===%4.    ",
"         +7o7<$$$$$.:%%=%4+.    ",
"         .3oo+$$$$$.++@@:%4.    ",
"          +3++4###4.<+:::4+     ",
"           .$$:###:$$.4:4.      ",
"           .$;;@@@;;$...        ",
"           .$$7o7$$$$           ",
"           .$$@7@$$.            ",
"             .....              "
};
