/* XPM */
static char *f7f3315d2130459ed5f8b6670314aaca5kzf3o5QdVZSJXxA[] = {
/* columns rows colors chars-per-pixel */
"32 32 27 1 ",
"  c None",
". c black",
"X c black",
"o c #C03838",
"O c #F86848",
"+ c #682828",
"@ c #784040",
"# c #D89070",
"$ c #383878",
"% c #B89838",
"& c #E8E8F8",
"* c #F8C090",
"= c #F8D858",
"- c #B0B0D0",
"; c #70A0C0",
": c #A87840",
"> c #000001",
", c #682829",
"< c #010000",
"1 c #C03838",
"2 c #000100",
"3 c #692828",
"4 c #784140",
"5 c #F86948",
"6 c #C13838",
"7 c #794040",
"8 c #F86849",
/* pixels */
"                                ",
"                                ",
"                                ",
"                                ",
"                                ",
"       +++++++++++++++          ",
"     ++ooOOOOOOOOOOOoo++        ",
"     ++66OOOOOOOOOOO6673        ",
"     ++OOOOOOOOOOOOOOOoo++      ",
"   ++ooOOOOOOOOOOOOOO8&-+++     ",
"   ++ooOOOOOOOOOOOOOO8&&+:-;    ",
"   ++ooo6OOOOOOOOOOO66&&+-&-.   ",
"   ++ooooooooooooooooo--o#&-.   ",
"   ++37ooooooooooooooo##--&-.   ",
"   ..+,ooooooooooooo:::#--&-.   ",
"   ..@@,++3ooooooooo-----;.     ",
"   ..@@@@@@77777777744;;:4      ",
"    .,,@4::::47777,+7744@@      ",
"     ..@4##*#:####4.####@@      ",
"       <+##**###**:@**77        ",
"       44:#######*#:##@         ",
"     <2%%@@@:#######4@          ",
"   ..====%%++<<<,@@@,+          ",
"   ..:%==%:+,$$$,+7o3+          ",
"   ..44==%:.$$$$$<oo3+          ",
"   ..:%4@++.$$$$@+oo<.          ",
"     +4::+<.4###4++3            ",
"     ..::.>$:###:$>.            ",
"       ...$;;@@@;;$.            ",
"           $$$7o4$$.            ",
"           .$$@7@$>.            ",
"             .....              "
};
