/* XPM */
static char *_f980083d19148dd8d54c8ffbbbb8d40TW0bDDZwzrjMvK4O[] = {
/* columns rows colors chars-per-pixel */
"32 32 7 1 ",
"  c #604B44",
". c #685047",
"X c #6E554B",
"o c #594640",
"O c #74594D",
"+ c #785E53",
"@ c #7E6356",
/* pixels */
"X+..Oo.XoOXo. oX. OX X. + oO. .o",
" .o.O .Oo++o..o.. OX X..+. O. Xo",
"X+. O .O ++o..o.. +O X. +. O..Xo",
"X@. O .X ++ .XoX. +O O..+. O..O ",
"X@  O .X +@ ..oOX +O O. +. O..O ",
"X+ oX .X ++ ..oX. +X X.o+. O. Xo",
"O+ oX .O ++o..oOX +O X.oO. O o o",
"X+  O .O O+o.XoX. ++o. oO. O .O ",
"X+  Oo.O ++ .XoX. +Oo   O. O .Oo",
"X+  O .X +@ooooXX OOoXX O.oO  Oo",
"X+o X .X +@oo oXXoOXoXX O.oX  Oo",
"X+oooo.X +@o .oX.oOXoXX O.o.o Oo",
"X+. . .X +@  XoX. +Xo.. +.oX  Xo",
"X@. X .X +@ .XoX. +XoOX +. O  Xo",
"X@X.X .X +@ ..o.. +O O. O. O  Xo",
"X@X.Xo.O +@ ..o.. @+ +. O. O  Oo",
"X@..Xo.O +@ ..o.. +O OX O. O. Xo",
"X@...o.X +@ .Xo.. +O OXo.  O. .o",
"X@. .o.X +@ .Xo.. +XoOXo.  O. .o",
"O@. .o.X O@ .Xoooo+XoXX O. O. Xo",
"O@. .o.X O+ .Xo   +X XX O. X..O ",
"O@X .oo oO+o.Xo.. +X XX OX X..O ",
"O@. Xo X ++o..o..oOX O. O. O .O ",
"O@. X .X ++o..oX.o+O OX O. O. X ",
"X+. X  . ++o..oX. +O +X O. O  X ",
"X+..O  X ++o .oX. ++ +X +. X  X ",
"X+..O .X +Oo .oX. @+ OX +. X  .o",
"X+..O .X ++o..oX o+O XX +.o o .o",
"X+..O .XoO+ ..oX o+OoOX + o o .o",
"X+..Oo.XoXO  .oXXo..oOX O oX. .o",
"O+..O .XoO+  .oX.o  oO. + o.  . ",
"X@. O .Xo  o  oX. OX X. O oO. .o"
};
