/* XPM */
static char *_427e9e30ef9468a9c395a7a7bc859b8Zr76gdCDvPTZhFQe[] = {
/* columns rows colors chars-per-pixel */
"32 32 206 2 ",
"   c None",
".  c #D75C11",
"X  c #DA5E12",
"o  c #D95F15",
"O  c #DA6012",
"+  c #DD6212",
"@  c #DE6312",
"#  c #DE6313",
"$  c #D86315",
"%  c #DE6214",
"&  c #D86616",
"*  c #DD6517",
"=  c #E76317",
"-  c #E66A13",
";  c #E36815",
":  c #EA6F12",
">  c #EC6F13",
",  c #ED6F13",
"<  c #EB6F14",
"1  c #EB6F15",
"2  c #E86D16",
"3  c #EC6F14",
"4  c #E7661B",
"5  c #E06C1A",
"6  c #EC7013",
"7  c #ED7013",
"8  c #ED7014",
"9  c #EC7015",
"0  c #EB7716",
"q  c #EE7517",
"w  c #EC7B16",
"e  c #EF7F15",
"r  c #EE7F16",
"t  c #EE7F17",
"y  c #ED7918",
"u  c #EB781C",
"i  c #EF7F1C",
"p  c #E87220",
"a  c #EB7421",
"s  c #EC7824",
"d  c #E67B39",
"f  c #EF8015",
"g  c #F08615",
"h  c #F28617",
"j  c #F28916",
"k  c #F18A17",
"l  c #F38D16",
"z  c #F0821B",
"x  c #F1831B",
"c  c #F18719",
"v  c #F0811E",
"b  c #F0811F",
"n  c #F1851C",
"m  c #F18818",
"M  c #F18B18",
"N  c #F2891A",
"B  c #F28B1B",
"V  c #F0891F",
"C  c #F39116",
"Z  c #F39217",
"A  c #F49116",
"S  c #F49117",
"D  c #F49217",
"F  c #F49218",
"G  c #F49318",
"H  c #F49319",
"J  c #F4941B",
"K  c #F3911F",
"L  c #F4951C",
"P  c #F5971C",
"I  c #F5961D",
"U  c #F4971E",
"Y  c #F4971F",
"T  c #E78222",
"R  c #E68725",
"E  c #EC8522",
"W  c #EB8A25",
"Q  c #EC8E27",
"!  c #EC8E28",
"~  c #F18721",
"^  c #F18C23",
"/  c #E99229",
"(  c #EE912F",
")  c #EF932F",
"_  c #EE982B",
"`  c #EE982D",
"'  c #F49622",
"]  c #F19327",
"[  c #F39326",
"{  c #F59821",
"}  c #F59922",
"|  c #F49823",
" . c #F49927",
".. c #F59F25",
"X. c #F59C26",
"o. c #F3972A",
"O. c #F49729",
"+. c #F3982A",
"@. c #F39B2B",
"#. c #F4982A",
"$. c #F4992A",
"%. c #F49D2B",
"&. c #F59F2A",
"*. c #F19B2C",
"=. c #F59B2C",
"-. c #F09E2D",
";. c #F39F2D",
":. c #F49C2C",
">. c #F59C2C",
",. c #F49D2C",
"<. c #F59D2E",
"1. c #F49F2F",
"2. c #F49E31",
"3. c #F19E3E",
"4. c #F5A026",
"5. c #F6A026",
"6. c #F6A52A",
"7. c #F6A62B",
"8. c #F5A12C",
"9. c #F4A02D",
"0. c #F5A02D",
"q. c #F6A02C",
"w. c #F5A22D",
"e. c #F6A22D",
"r. c #F5A02E",
"t. c #F5A22E",
"y. c #F6A32E",
"u. c #F6A32F",
"i. c #F5A42F",
"p. c #F5A52F",
"a. c #F6A52F",
"s. c #F8AB2F",
"d. c #F1A431",
"f. c #F5A530",
"g. c #F6A530",
"h. c #F5A236",
"j. c #F1A434",
"k. c #F2A435",
"l. c #F3A535",
"z. c #F8AF34",
"x. c #F6AB3C",
"c. c #F9B235",
"v. c #F9B537",
"b. c #FBBC3C",
"n. c #FABD3C",
"m. c #FBBD3C",
"M. c #EE9E52",
"N. c #F5A840",
"B. c #F2AA47",
"V. c #F4AC45",
"C. c #FBBD40",
"Z. c #F6B24E",
"A. c #F5AF52",
"S. c #F6B457",
"D. c #F7BA52",
"F. c #F6B856",
"G. c #F7B05B",
"H. c #F1B25F",
"J. c #F7BE5F",
"K. c #F9BE5B",
"L. c #F6B16C",
"P. c #F5B674",
"I. c #F7BC7F",
"U. c #FCC240",
"Y. c #FDC240",
"T. c #FDC441",
"R. c #FDC544",
"E. c #FDC74C",
"W. c #FDC84B",
"Q. c #FBCC5E",
"!. c #FAC563",
"~. c #FAC966",
"^. c #F6C268",
"/. c #F7C56B",
"(. c #F8C56C",
"). c #F8C76D",
"_. c #F8CC6D",
"`. c #FBCE6D",
"'. c #FED367",
"]. c #FDD469",
"[. c #FDD46A",
"{. c #FCD475",
"}. c #FED871",
"|. c #FED872",
" X c #FED977",
".X c #FFDC79",
"XX c #FDDC7B",
"oX c #FEDC7B",
"OX c #FFDD7B",
"+X c #FCDC7D",
"@X c #F6BC80",
"#X c #F9C597",
"$X c #F7C69D",
"%X c #F7CAA2",
"&X c #F7CBA5",
"*X c #F9CBA3",
"=X c #FAE1CC",
"-X c #FAE1CD",
";X c #FAE3CE",
":X c #FAE8D8",
">X c #FCF2E7",
",X c #FDF8F1",
"<X c #FDF9F3",
"1X c #FEFCF9",
"2X c #FEFDFC",
"3X c white",
/* pixels */
"                                                                ",
"                                                                ",
"                                                                ",
"                                                                ",
"                          ! _ j.j.                              ",
"                  < i +.g.g.g.g.g.g.I.&X                        ",
"              > q O.g.g.g.q.,.q.q.g.*X3X<X%X                    ",
"            < y q.g.q.[ B l D D D F | L.:X3X=XB.                ",
"          X & -.g.$.c C D D D D D D D D L $X1X=X                ",
"        > 6 ,.g.[ g D D D F u z.5.D D D D F P.>Xg.              ",
"        ; E g.,.g D D D D t ) T.b.C D D D D J G.<X@X            ",
"      - - ,.g.x D D D D D 4 C.T.T.6.D D D D D | =X#X            ",
"      6 v g.o.k D D D D t ) T.T.T.b.D D D D D D q.g.p.          ",
"    * # W g.~ D B 3.A.J.^.Q.T.T.T.T.b.c.s.6.L D ..g.p.    OX    ",
"    > 8 $.g.x k d OXOXOXOXOXW.T.T.T.T.T.T.T.v.D L g.g.`.OXOX+X  ",
"    3 8 ,.g.t F p ).OXOXOXOX}.R.T.T.T.T.T.U.5.D L g.g.          ",
"    # # *.g.f D D s ).OXOXOXOX].T.T.T.T.U.5.D D L g.g.          ",
"    > 8 $.g.n D D F a ).OXOXOXOX'.T.T.U...D D D ,.~.x.          ",
"    o . R g.^ D D D t M.OXOXOXOXOX].R.b.D D D D ..D.p.  OX      ",
"      6 v g.=.k D D 0 H.OXOXOXOXOXOX}.E.C D D D q.g.p.          ",
"      3 8 q.g.V D D < /.OXOXOXOXOXOXOXOXh.D D | g.p.            ",
"        X T g.q.B D = {.OX XF.' N.`.OXOXZ.D J q.g.p.            ",
"        > 6 ,.g.+.B w S.K. .D D D D V.!.2.F q.g.p.              ",
"          % 5 -.g.q.K D D D D D D D D D L q.g.g.                ",
"            < y q.g.g.%.| L D D D F | %.g.g.p.d.                ",
"              O $ / g.g.g.g.g.q.q.g.g.g.g.g.                    ",
"                  : i +.g.g.g.g.g.g.g.p.                        ",
"                          Q ` j.                                ",
"                                                                ",
"                                                                ",
"                                                                ",
"                                                                "
};
