/* XPM */
static char *_08c3601fca04b95aae940e71c6c78abDgPMeCuKRiL8NNyI[] = {
/* columns rows colors chars-per-pixel */
"32 32 99 2 ",
"   c None",
".  c black",
"X  c #020101",
"o  c #030301",
"O  c #050000",
"+  c #070000",
"@  c #1F0100",
"#  c #300100",
"$  c #370200",
"%  c #3D0200",
"&  c #211C12",
"*  c #252015",
"=  c #272216",
"-  c #2A2419",
";  c #30291C",
":  c #302A1D",
">  c #312A1D",
",  c #332D1F",
"<  c #362F21",
"1  c #373022",
"2  c #410200",
"3  c #440300",
"4  c #460300",
"5  c #480300",
"6  c #500400",
"7  c #5F0500",
"8  c #4A1E13",
"9  c #6B0600",
"0  c #483F2D",
"q  c #4B422F",
"w  c #564B36",
"e  c #7F7052",
"r  c #960C00",
"t  c #9F0900",
"y  c #990E00",
"u  c #9A0E00",
"i  c #9B0E00",
"p  c #9D0E00",
"a  c #9D0F01",
"s  c #9E0E00",
"d  c #A00F00",
"f  c #A10F00",
"g  c #A80900",
"h  c #A80A00",
"j  c #A80B00",
"k  c #A80C00",
"l  c #A80D00",
"z  c #A71000",
"x  c #A81000",
"c  c #A81101",
"v  c #A91E0D",
"b  c #A91F0E",
"n  c #A91F0F",
"m  c #AF402B",
"M  c #B04731",
"N  c #B14731",
"B  c #B14932",
"V  c #B14933",
"C  c #AE583F",
"Z  c #B75D43",
"A  c #B75E43",
"S  c #836A4D",
"D  c #807153",
"F  c #DCB889",
"G  c #DBC392",
"H  c #E9C291",
"J  c #EAC493",
"K  c #EAC593",
"L  c #E1C896",
"P  c #E3CA97",
"I  c #EDC996",
"U  c #E6CC99",
"Y  c #E7CD99",
"T  c #E7CD9A",
"R  c #EACE9A",
"E  c #EBCF9B",
"W  c #EBD19D",
"Q  c #ECD29D",
"!  c #EDD29D",
"~  c #EFD59F",
"^  c #F0D5A0",
"/  c #F1D6A1",
"(  c #F2D7A1",
")  c #F6D7A1",
"_  c #F4D8A2",
"`  c #F7D8A2",
"'  c #F7D9A2",
"]  c #F7DBA4",
"[  c #F7DCA5",
"{  c #F8D9A3",
"}  c #F8DAA3",
"|  c #F9DBA5",
" . c #F9DCA5",
".. c #FADEA7",
"X. c #FBDEA7",
"o. c #FBDFA7",
"O. c #FBDFA8",
"+. c #FCE0A8",
"@. c #FCE1A8",
/* pixels */
"                        x x x x x x x x                         ",
"                        x x x x x x x x                         ",
"                    x x x x x x x x x x x x                     ",
"                    x x x x x x x x x x x x                     ",
"                x x x x x x x x x x x x x x x x                 ",
"                x x x x x x x x x x x x x x x x                 ",
"            x x x x x x x x x x x x x x x x x x x x             ",
"            x x x x x x x x x x x x x x x x x x x x             ",
"        x x 6 3 3 3 z x x x x x x x x x x u 3 3 3 9 x x         ",
"        x x # . . + z x x x x x x x x x x r . . . 7 x x         ",
"    x x x x s s R W 8 5 x x x x x x x u 2 S Q F s d x x x x     ",
"    x x x x x x | o.* @ x x x x x x x u . D +.J x x x x x x     ",
"    x x x x x x | o.* + % % % % % % % $ . D +.J x x x x x x     ",
"    x x x x x x | o.* . . . . . . . . . . D +.J x x x x x x     ",
"x x x x x x x x | o.* : ~ R t d d C / G . D +.J x x x x x x x x ",
"x x x x x x x x | o.& : +.{ h x x Z +.U . e +.J x x x x x x x x ",
"x x x x x x x x | +./ / +.{ h x x Z +.o./ ' +.J x x x x x x x x ",
"x x x x x x x x o.+.+.+.+.{ h x x Z +.+.+.+.+.J x x x x x x x x ",
"x x x x x x x x N B B B B N x x x v B B B B B m x x x x x x x x ",
"x x x x x x x x x x h h h h h h h h h h h h x x x x x x x x x x ",
"    x x x x x x x v ) ' ' ' ' ' ' ' ' ' ' H x x x x x x x x     ",
"    x x x x x x k v o.+.+.+.+.+.+.+.+.+.+.I k k x x x x x x     ",
"                { { +.+.+.+.+.+.+.+.+.+.+.o.{ '                 ",
"                +.+.+.+.+.+.+.+.+.+.+.+.+.+.+.+.                ",
"        . . . . [ +.+.+.+.+.+.+.+.+.+.+.+.+.+.+.                ",
"        . . . . ] +.+.+.+.+.+.+.+.+.+.+.+.+.+.+.                ",
"    . . . . . . < 1 1 q +.+.+.+.+.+.+.+.+.L 1 : . .             ",
"    . . . . . . . . . , o.O.+.+.+.+.+.+.O.L . . . .             ",
"    . . . . . . . . . . : w +.+.+.+.+.U : - . . . .             ",
"    . . . . . . . . . . . 0 +.+.+.+.o.U . . . . . .             ",
"        . . . . . . . . . 0 +.+.+.Q * * . . . .                 ",
"        . . . . . . . . . 0 +.+.+.W . . . . . .                 "
};
